<svg xmlns="http://www.w3.org/2000/svg" viewBox="0 0 32 32" width="32" height="32">
  <defs>
    <linearGradient id="leafGradient" x1="0%" y1="0%" x2="100%" y2="100%">
      <stop offset="0%" style="stop-color:#22c55e;stop-opacity:1" />
      <stop offset="100%" style="stop-color:#16a34a;stop-opacity:1" />
    </linearGradient>
  </defs>
  <path d="M16 2C12 2 8 4 6 8C4 12 6 16 8 20C10 24 14 28 16 30C18 28 22 24 24 20C26 16 28 12 26 8C24 4 20 2 16 2Z" fill="url(#leafGradient)"/>
  <path d="M16 8C14 8 12 10 12 12C12 14 14 16 16 16C18 16 20 14 20 12C20 10 18 8 16 8Z" fill="white" opacity="0.8"/>
</svg> 